<svg xmlns="http://www.w3.org/2000/svg" width="48" height="48" fill="none" viewBox="0 0 48 48"><path fill="#1E394F" d="M44.248 15.357c.42-.66 0-1.8.06-2.58.12-.78 1.44-2.7 1.32-3.48-.66.06-1.74.18-2.88 0-1.2-.12-4.2.42-5.28.9s.24-.42-.6-.78c-.84-.3-4.26 1.08-4.26 1.08l-3.3-.24-5.16.54-5.22-.48-3.3.24s-3.42-1.44-4.26-1.08c-.84.3.54 1.2-.6.78-1.08-.48-4.08-1.02-5.28-.9s-2.22.06-2.88 0c-.12.72 1.26 2.7 1.32 3.48.12.78-.36 1.92.06 2.58s-.3 1.02-.3 1.8 1.62 1.92 1.44 2.58c-.18.6-.24 1.98 0 3.12s.84 3.18.66 4.14c-.18.9-.78 2.76-.66 3.18s.18.78.18 1.38c0 .54.6 2.1.48 2.82s.18 1.92.06 2.28-.84 2.04-.18 1.86c.6-.18 4.44-.3 5.7-.3.6 0 3.3.3 6.3.3 1.68 0 1.44-.06 2.94-.24.54.24 3 .24 3.24.18.06 0 .18-.06.3-.06s.18.06.3.06c.24.06 2.64.06 3.24-.18 1.5.18 1.26.24 2.94.24 3 .06 5.7-.3 6.3-.3 1.32 0 5.1.06 5.7.3.6.18-.12-1.44-.18-1.86-.12-.36.24-1.56.06-2.28-.12-.72.48-2.28.48-2.82s.06-.96.18-1.38-.54-2.28-.66-3.18c-.18-.9.42-2.94.66-4.14.24-1.14.18-2.52 0-3.12s1.44-1.8 1.44-2.58c0-.84-.78-1.2-.36-1.86"/><path fill="#79ACCB" fill-rule="evenodd" d="M15.232 41.621V42H5v-.379c.568-.379 1.895-1.705 1.895-2.274V8.463c0-.568-1.516-1.895-1.895-2.274V6h10.421v.379c-.568.379-1.895 1.516-1.895 2.274v2.463h-3.031c-.569 0-1.137.379-1.327.947-.189.569.19 1.137.569 1.516.568.568 1.137 1.137 1.326 2.084 0 .19.19.758.569 1.895.379 1.705 1.136 4.358 1.705 7.2v14.779c0 .568 1.326 1.705 1.895 2.084m14.779 0V42H19.59v-.379c.568-.379 1.894-1.516 1.894-2.084v-2.084h2.463c.38 0 .758-.38.948-.758.19.19.568.758.947.758h1.895v2.084c.19.758 1.516 1.895 2.274 2.084M18.83 6.379V6h10.422v.379c-.569.379-1.895 1.705-1.895 2.274 0 .379.379 7.768.379 12.884l-2.274-8.905c-.19-.569-.758-.948-1.326-.948s-1.137.38-1.326.948l-2.085 8.715V8.463c0-.379-1.326-1.705-1.894-2.084M41 39.347c0 .569 1.516 1.895 1.895 2.274V42H32.663v-.379c.569-.379 1.895-1.705 1.895-2.274V26.084c.758-3.979 1.516-8.337 1.895-9.852.379-1.137.947-2.085 1.894-3.032.38-.379.569-.947.38-1.516-.19-.568-.759-.947-1.327-.947h-2.842V8.653c0-.569-1.326-1.895-1.895-2.274V6h10.232v.379C42.326 6.758 41 8.084 41 8.653z" clip-rule="evenodd"/><path fill="#F8B700" fill-rule="evenodd" d="M11.063 12.821h7.39c-.19.758-.19 1.705-.19 2.463.38 3.221 2.463 12.506 2.463 12.506l3.6-14.4 3.6 14.02s2.085-12.315 2.085-13.073c0-.569-.38-1.137-.948-1.516h7.769c-.948.947-1.895 2.274-2.274 3.6-.758 2.653-3.221 16.295-3.221 17.242 0 .948.379 1.705.947 2.463h-7.2c.19-.568.19-1.326.19-2.084 0-1.326-1.137-7.2-1.137-7.2s-1.516 6.063-1.516 7.2c0 .758.19 1.326.569 1.895h-7.58s1.516-.947 1.327-2.084c-.19-2.843-3.979-17.243-4.358-18.38 0-.947-.568-1.894-1.516-2.652" clip-rule="evenodd"/></svg>